<?xml version="1.0" encoding="UTF-8"?>
<svg id="Layer_2" data-name="Layer 2" xmlns="http://www.w3.org/2000/svg" xmlns:xlink="http://www.w3.org/1999/xlink" viewBox="0 0 2271.07 273.56">
  <defs>
    <style>
      .cls-1 {
        fill: url(#linear-gradient-2);
      }

      .cls-2 {
        fill: #fff;
      }

      .cls-3 {
        fill: #28c9fb;
      }

      .cls-4 {
        fill: url(#linear-gradient);
      }
    </style>
    <linearGradient id="linear-gradient" x1="198.58" y1="154.23" x2="98.61" y2="254.19" gradientUnits="userSpaceOnUse">
      <stop offset="0" stop-color="#1974f9"/>
      <stop offset=".46" stop-color="#1974f9"/>
      <stop offset=".54" stop-color="#186dec"/>
      <stop offset=".7" stop-color="#165dcc"/>
      <stop offset=".91" stop-color="#134297"/>
      <stop offset="1" stop-color="#12367f"/>
    </linearGradient>
    <linearGradient id="linear-gradient-2" x1="328.4" y1="160.8" x2="466.05" y2="23.15" xlink:href="#linear-gradient"/>
  </defs>
  <g id="Layer_1-2" data-name="Layer 1">
    <g>
      <rect class="cls-2" x="621.82" y="13.43" width="30.13" height="134.76"/>
      <polygon class="cls-2" points="674.14 38.4 674.14 13.43 805.93 13.43 805.93 38.4 754.6 38.4 754.6 148.19 724.48 148.19 724.48 38.4 674.14 38.4"/>
      <path class="cls-2" d="m917.69,61.79v37.06c0,24.38,18.63,35.87,44.59,35.87,17.04,0,32.7-3.17,44.39-10.31l6.54,13.28c-14.27,9.12-30.12,12.49-51.72,12.49-35.47,0-61.24-17.64-61.24-50.53v-38.64c0-30.32,27.94-49.54,61.04-49.54,22,0,39.44,4.76,52.52,15.06l-7.53,12.88c-10.5-7.93-26.16-12.29-44.2-12.29-23.78,0-44.39,13.08-44.39,34.68"/>
      <path class="cls-2" d="m1166.8,60.4v40.43c0,31.91-25.76,49.35-63.22,49.35h-2.97c-36.46,0-61.04-17.04-61.04-49.35v-40.43c0-30.12,25.56-48.95,60.84-48.95h3.17c36.07,0,63.22,18.83,63.22,48.95m-17.44,1.58c0-22.2-19.22-35.27-45.78-35.27h-3.17c-25.37,0-43.6,13.48-43.6,35.08v37.65c0,24.18,17.24,35.67,43.79,35.67h2.97c27.74,0,45.78-11.69,45.78-35.67v-37.46Z"/>
      <polygon class="cls-2" points="1310.68 13.43 1326.93 13.43 1326.93 148.19 1309.3 148.19 1217.54 36.42 1217.54 148.19 1201.09 148.19 1201.09 13.43 1218.93 13.43 1310.68 124.81 1310.68 13.43"/>
      <path class="cls-2" d="m1475.77,111.93c0,25.17-23.98,37.85-55.09,37.85-24.38,0-47.17-8.13-61.83-22.39l8.13-12.09c13.48,11.69,31.71,19.62,53.9,19.62s37.06-7.53,37.06-22.59c0-13.68-6.74-20.41-41.62-25.17-36.86-5.15-53.11-14.87-53.31-37.65-.2-24.97,24.77-37.85,54.69-37.85,23.19,0,41.22,6.34,56.68,18.03l-7.93,12.49c-13.48-9.51-29.33-15.46-48.75-15.46-21.2,0-37.06,8.32-37.06,22.59s11.49,20.02,42.81,23.98c36.26,4.56,52.32,14.86,52.32,38.64"/>
      <path class="cls-2" d="m1617.07,13.43h17.24v86.8c0,33.49-29.13,49.94-63.81,49.94s-62.43-16.05-62.43-49.94V13.43h17.24v85.21c0,24.97,21,36.46,44.99,36.46s46.77-12.88,46.77-36.46V13.43Z"/>
      <polygon class="cls-2" points="1689.02 13.43 1689.02 133.13 1777.8 133.13 1777.8 148.19 1671.78 148.19 1671.78 13.43 1689.02 13.43"/>
      <polygon class="cls-2" points="1774.43 28.69 1774.43 13.43 1902.45 13.43 1902.45 28.69 1845.57 28.69 1845.57 148.19 1828.34 148.19 1828.34 28.69 1774.43 28.69"/>
      <rect class="cls-2" x="1929.41" y="13.43" width="17.24" height="134.76"/>
      <polygon class="cls-2" points="2097.66 13.43 2113.91 13.43 2113.91 148.19 2096.28 148.19 2004.52 36.42 2004.52 148.19 1988.07 148.19 1988.07 13.43 2005.91 13.43 2097.66 124.81 2097.66 13.43"/>
      <path class="cls-2" d="m2212.81,77.25h58.27v56.68c-13.88,8.12-31.71,16.25-59.65,16.25-36.06,0-63.81-19.42-63.81-49.35v-41.02c0-29.92,29.53-48.36,64.41-48.36,21.4,0,41.81,5.95,54.5,14.86l-7.13,13.08c-11.3-7.73-28.34-12.68-46.77-12.68-25.57,0-47.56,13.08-47.56,34.68v37.85c0,22.39,20.81,35.87,46.37,35.87,19.62,0,31.71-4.95,42.21-10.5v-32.9h-40.82v-14.47Z"/>
      <path class="cls-2" d="m638.04,202.34l25.68,59.09h-8.24l-7.56-17.18h-28.09l-7.56,17.18h-8.33l26.02-59.09h8.07Zm8.07,35.73l-12.11-27.48-12.37,27.48h24.48Z"/>
      <polygon class="cls-2" points="752.95 203.03 759.99 203.03 759.99 261.43 752.35 261.43 712.58 212.99 712.58 261.43 705.46 261.43 705.46 203.03 713.18 203.03 752.95 251.29 752.95 203.03"/>
      <path class="cls-2" d="m831.61,203.03c14.69,0,26.8,7.73,26.8,22.33v13.91c0,15.12-12.45,22.16-27.23,22.16h-24.65v-58.4h25.07Zm19.33,23.36c0-10.99-9.19-16.75-19.33-16.75h-17.69v45.26h17.26c10.39,0,19.75-4.98,19.75-16.66v-11.85Z"/>
      <path class="cls-2" d="m939.13,235.49l15.37,25.94h-8.24l-14.35-24.31h-21.21v24.31h-7.47v-58.4h30.06c12.02,0,19.92,5.93,19.92,15.89v2.06c0,8.07-5.84,12.88-14.08,14.52m-28.43-4.64h22.67c6.19-.17,12.37-3.26,12.37-9.45v-2.15c0-5.75-5.15-9.62-12.97-9.62h-22.07v21.21Z"/>
      <polygon class="cls-2" points="1003.71 234.8 1003.71 254.9 1040.47 254.9 1040.47 261.43 996.24 261.43 996.24 203.03 1038.41 203.03 1038.41 209.64 1003.71 209.64 1003.71 228.45 1033.86 228.45 1033.86 234.8 1003.71 234.8"/>
      <path class="cls-2" d="m1113.13,202.34l25.68,59.09h-8.24l-7.56-17.18h-28.09l-7.56,17.18h-8.33l26.02-59.09h8.07Zm8.07,35.73l-12.11-27.48-12.37,27.48h24.48Z"/>
      <path class="cls-2" d="m1228.55,245.71c0,10.91-10.39,16.4-23.87,16.4-10.56,0-20.44-3.52-26.79-9.7l3.52-5.24c5.84,5.07,13.74,8.5,23.36,8.5s16.06-3.26,16.06-9.79c0-5.93-2.92-8.85-18.03-10.91-15.97-2.23-23.02-6.44-23.1-16.32-.09-10.82,10.74-16.4,23.7-16.4,10.05,0,17.86,2.75,24.56,7.82l-3.44,5.41c-5.84-4.12-12.71-6.7-21.13-6.7-9.19,0-16.06,3.61-16.06,9.79s4.98,8.68,18.55,10.39c15.72,1.98,22.67,6.44,22.67,16.75"/>
      <polygon class="cls-2" points="1370.67 203.03 1378.23 203.03 1378.23 261.43 1370.67 261.43 1370.67 236.35 1329.36 236.35 1329.36 261.43 1321.89 261.43 1321.89 203.03 1329.36 203.03 1329.36 229.82 1370.67 229.82 1370.67 203.03"/>
      <path class="cls-2" d="m1453.98,202.34l25.68,59.09h-8.24l-7.56-17.18h-28.09l-7.56,17.18h-8.33l26.02-59.09h8.07Zm8.07,35.73l-12.11-27.48-12.37,27.48h24.48Z"/>
      <polygon class="cls-2" points="1570.17 203.03 1577.73 203.03 1577.73 261.43 1570.17 261.43 1570.17 236.35 1528.86 236.35 1528.86 261.43 1521.39 261.43 1521.39 203.03 1528.86 203.03 1528.86 229.82 1570.17 229.82 1570.17 203.03"/>
      <polygon class="cls-2" points="1671.86 203.03 1678.9 203.03 1678.9 261.43 1671.25 261.43 1631.49 212.99 1631.49 261.43 1624.36 261.43 1624.36 203.03 1632.09 203.03 1671.86 251.29 1671.86 203.03"/>
      <polygon class="cls-2" points="1732.83 234.8 1732.83 254.9 1769.58 254.9 1769.58 261.43 1725.35 261.43 1725.35 203.03 1767.52 203.03 1767.52 209.64 1732.83 209.64 1732.83 228.45 1762.97 228.45 1762.97 234.8 1732.83 234.8"/>
      <polygon class="cls-2" points="1820.51 203.03 1820.51 254.9 1858.99 254.9 1858.99 261.43 1813.04 261.43 1813.04 203.03 1820.51 203.03"/>
      <rect class="cls-2" x="822.28" y="70.72" width="43.25" height="20.18"/>
      <g>
        <path class="cls-4" d="m262.97,204.1l-46.32-46.15-29.04,29.72c-28.05,28.05-73.68,28.05-101.73,0-6.16-6.16-10.89-13.2-14.34-20.69,20.69,77.44,92.15,101.61,140.37,84.17,7.64-5.02,14.88-10.88,21.6-17.59l29.47-29.47Z"/>
        <path class="cls-3" d="m71.54,166.99c-12.27-26.59-7.54-59.15,14.34-81.04,13.6-13.57,31.65-21.06,50.88-21.06s37.28,7.49,50.85,21.06l29.15,29.8,46.21-46.2-29.47-29.47C207.67,14.25,173.31,0,136.77,0S65.86,14.25,39.99,40.08C13.33,66.75,0,101.79,0,136.83s13.33,70.05,39.99,96.74c26.69,26.66,61.73,39.99,96.77,39.99,26.22,0,52.43-7.47,75.15-22.4-48.22,17.44-119.68-6.74-140.37-84.17Z"/>
        <g>
          <path class="cls-1" d="m496.54,107.63c-3.48-7.88-8.35-15.25-14.78-21.68-13.6-13.57-31.65-21.06-50.88-21.06s-37.28,7.49-50.85,21.06l-50.88,50.88-47.69,44.07-44.07-44.07,96.74-96.74c4.01-4.04,8.26-7.73,12.68-11.18,46.57-26.69,128.57-5.55,149.72,78.72Z"/>
          <path class="cls-3" d="m567.65,136.83c0,35.01-13.36,70.05-40.02,96.74-26.66,26.66-61.7,39.99-96.74,39.99s-70.08-13.33-96.74-39.99l-52.68-52.68,47.69-44.07,50.88,50.85c28.02,28.05,73.68,28.05,101.73,0,21.59-21.62,26.49-53.65,14.78-80.05C475.4,23.36,393.4,2.21,346.83,28.9,370.75,10.18,400.04,0,430.89,0c36.54,0,70.91,14.25,96.74,40.08,26.66,26.66,40.02,61.7,40.02,96.74Z"/>
        </g>
      </g>
      <g>
        <rect class="cls-2" x="1436.15" y="190.88" width="8.79" height="8.79"/>
        <rect class="cls-2" x="1454.61" y="190.88" width="8.79" height="8.79"/>
      </g>
    </g>
  </g>
</svg>